# xmcd CD database file generated by LOLA_Freedb v0.9beta0
# 
# Track frame offsets:
#      150
#      13519
#      27423
#      37554
#      47474
#      57526
#      68522
#      79538
#      91509
#      103407
# 
# Disc length: 1522 seconds
# 
# Revision: 0 
# Processed by: cddbd v1.5.2PL0 Copyright (c) Steve Scherf et al.
# Submitted via: LOLA_Freedb v0.9beta0
# 
DISCID=6905f00a
DTITLE=Hank Thompson - Best Of The Best Of HANK THOMPSON
DYEAR=1990
DGENRE=
TTITLE0=Hank Thompson - Wild Side Of Life
TTITLE1=Hank Thompson - Yesterday's Girl
TTITLE2=Hank Thompson - Humply Dumply Heart
TTITLE3=Hank Thompson - A  Six Pack To Go
TTITLE4=Hank Thompson - Whoa Sailor
TTITLE5=Hank Thompson - Wake Up Irene
TTITLE6=Hank Thompson - The Older The Violin The Sweeter The Music
TTITLE7=Hank Thompson - Who Left The Door To Heaven Open
TTITLE8=Hank Thompson - Smokey The Bar
TTITLE9=Hank Thompson - Honky Tonk Girl
EXTD=
EXTT0=
EXTT1=
EXTT2=
EXTT3=
EXTT4=
EXTT5=
EXTT6=
EXTT7=
EXTT8=
EXTT9=
PLAYORDER=
